<?xml version="1.0"?>
<svg version="1.1" xmlns="http://www.w3.org/2000/svg" width="400" height="200" style="border: none"><path fill="#" d="M15.732421875,120.61767578125q0-0.732421875,0.164794921875-1.94091796875t0.384521484375-2.398681640625t0.5126953125-2.215576171875t0.69580078125-1.318359375q0.29296875-0.29296875,1.007080078125-0.5859375t1.50146484375-0.421142578125t1.46484375,0.10986328125t0.823974609375,0.970458984375q-0.5126953125,0.6591796875-0.933837890625,2.252197265625t-0.640869140625,3.533935546875q-0.18310546875,1.64794921875-0.18310546875,3.40576171875l0,0.62255859375q0.03662109375,2.05078125,0.3662109375,3.77197265625t1.007080078125,2.838134765625t1.885986328125,1.116943359375q2.5634765625,0,4.6875-2.362060546875t3.77197265625-5.767822265625t2.89306640625-7.232666015625t2.1240234375-6.683349609375q0.2197265625-0.84228515625,1.043701171875-1.13525390625t1.776123046875-0.201416015625t1.702880859375,0.457763671875t0.897216796875,0.87890625q-0.732421875,6.15234375-1.153564453125,12.3046875t-0.421142578125,12.3779296875q0,1.20849609375,0.10986328125,2.215576171875t-0.10986328125,1.72119140625t-0.970458984375,1.13525390625t-2.398681640625,0.421142578125q-0.3662109375,0-0.933837890625-0.0732421875t-1.171875-0.238037109375t-1.025390625-0.494384765625t-0.421142578125-0.76904296875q0-2.7099609375,0.201416015625-5.56640625t0.567626953125-5.52978515625q-0.98876953125,1.42822265625-2.178955078125,2.838134765625t-2.618408203125,2.545166015625t-3.076171875,1.812744140625t-3.55224609375,0.677490234375q-2.7099609375,0-4.266357421875-1.28173828125t-2.34375-3.204345703125t-0.98876953125-4.193115234375t-0.201416015625-4.39453125z M50.180786132812,110.58349609375q0-1.72119140625,0.677490234375-2.545166015625t2.471923828125-0.823974609375q1.06201171875,0,1.995849609375,0.439453125t0.933837890625,1.86767578125q0.146484375,2.08740234375,0.146484375,4.376220703125t0.40283203125,4.339599609375q0.91552734375-1.50146484375,2.069091796875-3.0029296875t2.545166015625-2.67333984375t3.03955078125-1.885986328125t3.5888671875-0.714111328125q2.63671875,0,4.4677734375,1.0986328125t3.021240234375,2.8564453125t1.72119140625,3.973388671875t0.531005859375,4.449462890625q0,3.4423828125-1.043701171875,5.621337890625t-2.764892578125,3.424072265625t-3.900146484375,1.6845703125t-4.376220703125,0.439453125q-1.94091796875,0-3.62548828125-0.750732421875t-2.34375-2.838134765625q0-0.5859375,0.860595703125-0.732421875t1.226806640625-0.146484375q1.20849609375,0,1.79443359375,0.6591796875q0.439453125,0.5126953125,0.970458984375,1.043701171875t1.116943359375,0.531005859375q1.13525390625,0,2.38037109375-0.640869140625t2.288818359375-1.6845703125t1.7578125-2.471923828125t0.714111328125-2.9296875q0-1.28173828125-0.2197265625-3.18603515625t-0.750732421875-3.662109375t-1.46484375-3.03955078125t-2.362060546875-1.28173828125q-2.16064453125,0-3.900146484375,1.9775390625t-2.89306640625,4.7607421875t-1.79443359375,5.7861328125t-0.640869140625,5.01708984375t0.25634765625,5.09033203125t0.531005859375,6.390380859375t0.531005859375,6.390380859375t0.25634765625,5.09033203125q0,0.5126953125-0.421142578125,0.823974609375t-1.007080078125,0.494384765625t-1.190185546875,0.2197265625t-0.897216796875,0.03662109375q-0.98876953125,0-2.069091796875-0.2197265625t-1.483154296875-1.35498046875q-0.5126953125-1.79443359375-0.9521484375-5.108642578125t-0.787353515625-7.32421875t-0.604248046875-8.4228515625t-0.439453125-8.514404296875t-0.274658203125-7.50732421875t-0.091552734375-5.419921875z M83.786865234375,100.5859375q0-0.5126953125,1.0986328125-0.87890625t2.490234375-0.604248046875t2.691650390625-0.347900390625t1.776123046875-0.18310546875q0-0.98876953125,0.0732421875-1.995849609375t0.40283203125-1.79443359375t1.043701171875-1.263427734375t1.995849609375-0.47607421875q1.06201171875,0,1.611328125,0.25634765625t1.171875,1.06201171875q0.146484375,0.439453125,0.146484375,0.84228515625l0,1.226806640625t-0.0732421875,1.263427734375q1.35498046875-0.146484375,2.691650390625-0.347900390625t2.691650390625-0.201416015625q0.98876953125,0,1.35498046875,0.03662109375t0.732421875,0.87890625q0.29296875,0.84228515625-0.714111328125,1.28173828125t-2.4169921875,0.6591796875t-2.801513671875,0.32958984375t-1.6845703125,0.10986328125q-0.439453125,6.298828125-0.897216796875,12.48779296875t-0.457763671875,12.56103515625q0,2.8564453125,0.18310546875,5.89599609375t1.025390625,5.74951171875q0.2197265625,0.84228515625,0.732421875,1.57470703125t0.5126953125,1.57470703125q0,0.5126953125-0.40283203125,0.8056640625t-0.970458984375,0.494384765625t-1.13525390625,0.238037109375t-0.933837890625,0.03662109375q-2.30712890625,0-3.515625-1.72119140625t-1.739501953125-4.119873046875t-0.567626953125-4.925537109375t-0.03662109375-4.1015625q0-3.22265625,0.128173828125-6.591796875t0.311279296875-6.6650390625t0.5126953125-6.4453125t0.76904296875-5.859375q-1.28173828125,0.146484375-2.508544921875,0.32958984375t-2.508544921875,0.18310546875q-0.29296875,0-0.787353515625-0.03662109375t-0.933837890625-0.18310546875t-0.750732421875-0.40283203125t-0.311279296875-0.732421875z M111.78991699219,125.341796875q0-2.5634765625,0.567626953125-6.04248046875t1.922607421875-6.591796875t3.570556640625-5.291748046875t5.584716796875-2.178955078125q3.1494140625,0,4.72412109375,1.812744140625t1.57470703125,4.888916015625q0,2.01416015625-0.750732421875,4.412841796875t-2.142333984375,4.541015625t-3.2958984375,3.570556640625t-4.248046875,1.42822265625l-0.9521484375-0.0732421875q0,0.98876953125,0.29296875,2.655029296875t0.860595703125,3.314208984375t1.46484375,2.89306640625t2.178955078125,1.2451171875q1.86767578125,0,3.5888671875-1.50146484375t3.25927734375-3.33251953125t2.8564453125-3.33251953125t2.4169921875-1.50146484375q0.5859375,0,1.20849609375,0.18310546875t0.69580078125,1.025390625q0,0.5126953125-0.274658203125,0.84228515625t-0.494384765625,0.732421875q-1.13525390625,1.94091796875-2.471923828125,3.69873046875t-3.021240234375,3.18603515625t-3.680419921875,2.252197265625t-4.412841796875,0.823974609375q-3.1494140625,0-5.23681640625-1.116943359375t-3.369140625-3.0029296875t-1.849365234375-4.35791015625t-0.567626953125-5.181884765625z M118.34509277344,122.55859375l1.025390625,0.91552734375q0.732421875,0.6591796875,1.46484375,0.29296875t1.318359375-1.336669921875t1.080322265625-2.398681640625t0.87890625-2.9296875t0.567626953125-2.9296875t0.18310546875-2.38037109375l0-1.2451171875t-0.10986328125-1.318359375t-0.384521484375-1.043701171875t-0.860595703125-0.531005859375q-0.18310546875-0.03662109375-0.32958984375-0.03662109375q-1.2451171875,0-2.1240234375,1.57470703125q-0.9521484375,1.7578125-1.5380859375,4.266357421875t-0.84228515625,5.145263671875t-0.32958984375,3.955078125z M142.39306640625,123.84033203125q0-2.490234375,0.677490234375-4.79736328125t2.032470703125-4.119873046875t3.387451171875-2.89306640625t4.705810546875-1.080322265625q1.64794921875,0,3.643798828125,0.494384765625t3.753662109375,1.46484375t2.9296875,2.471923828125t1.171875,3.4423828125q0,0.91552734375-0.311279296875,1.3916015625t-1.263427734375,0.47607421875l-0.40283203125-0.0732421875q1.06201171875,2.8564453125,1.8310546875,5.859375t1.50146484375,6.005859375q0.29296875,0.5859375,0.439453125,1.043701171875t0.146484375,0.897216796875q0,0.5859375-0.32958984375,0.970458984375t-0.860595703125,0.567626953125t-1.0986328125,0.25634765625t-1.007080078125,0.0732421875q-1.57470703125,0-2.362060546875-0.54931640625t-1.13525390625-1.50146484375t-0.421142578125-2.142333984375t-0.29296875-2.398681640625q-0.439453125,1.42822265625-1.153564453125,2.783203125t-1.6845703125,2.435302734375t-2.288818359375,1.72119140625t-2.96630859375,0.640869140625q-2.4169921875,0-4.06494140625-1.3916015625t-2.655029296875-3.424072265625t-1.46484375-4.339599609375t-0.457763671875-4.28466796875z M147.59326171875,123.32763671875q0,1.35498046875,0.18310546875,2.8564453125t0.604248046875,2.96630859375t1.080322265625,2.764892578125t1.64794921875,2.288818359375q1.79443359375-1.94091796875,2.655029296875-4.72412109375t1.5380859375-5.364990234375t1.5380859375-4.43115234375t2.655029296875-1.849365234375q1.13525390625,0,1.904296875,0.40283203125q-0.3662109375-0.91552734375-1.20849609375-1.776123046875t-1.885986328125-1.57470703125t-2.16064453125-1.171875t-2.105712890625-0.457763671875q-0.29296875,0-0.677490234375,0.091552734375t-0.604248046875,0.018310546875q-1.50146484375,0.439453125-2.471923828125,1.519775390625t-1.57470703125,2.545166015625t-0.860595703125,3.0029296875t-0.25634765625,2.89306640625z M174.22302246094,114.66674804688q-0.091552734375-1.226806640625,0.146484375-2.252197265625t0.9521484375-1.666259765625t2.288818359375-0.640869140625q0.3662109375,0,0.897216796875,0.091552734375t1.043701171875,0.238037109375t0.860595703125,0.439453125t0.347900390625,0.8056640625l0,4.13818359375q1.42822265625-1.64794921875,3.11279296875-2.362060546875t3.84521484375-0.714111328125q1.64794921875,0,3.25927734375,0.750732421875t3.03955078125,1.995849609375t2.471923828125,2.74658203125t1.519775390625,3.0029296875q0.29296875-1.35498046875,0.6591796875-3.314208984375t1.080322265625-3.753662109375t1.885986328125-3.076171875t3.11279296875-1.28173828125q2.08740234375,0,3.515625,1.50146484375t2.325439453125,3.900146484375t1.35498046875,5.364990234375t0.677490234375,5.859375t0.2197265625,5.401611328125l0,3.936767578125q0,0.439453125-0.32958984375,0.714111328125t-0.823974609375,0.421142578125t-1.025390625,0.18310546875t-0.823974609375,0.03662109375q-1.13525390625,0-2.069091796875-0.347900390625t-0.933837890625-1.776123046875l0-3.2958984375t-0.0732421875-4.266357421875t-0.25634765625-4.57763671875t-0.47607421875-4.156494140625t-0.750732421875-3.0029296875t-1.116943359375-1.171875q-0.91552734375,0-1.318359375,1.025390625t-0.677490234375,2.60009765625t-0.421142578125,3.33251953125t-0.40283203125,3.33251953125t-0.823974609375,2.581787109375t-1.556396484375,1.007080078125q-1.06201171875,0-1.86767578125-1.007080078125t-1.593017578125-2.508544921875t-1.57470703125-3.22265625t-1.739501953125-3.22265625q-0.9521484375-1.5380859375-2.05078125-2.490234375q-0.98876953125-0.91552734375-2.23388671875-0.87890625l-0.18310546875,0q-1.64794921875,0.0732421875-2.581787109375,1.190185546875t-1.42822265625,2.728271484375t-0.604248046875,3.460693359375t-0.10986328125,3.240966796875q0,1.318359375,0.2197265625,3.076171875q0.146484375,1.171875,0.146484375,2.23388671875q0,0.54931640625-0.03662109375,1.06201171875q-0.10986328125,1.5380859375-0.823974609375,2.581787109375t-2.655029296875,1.043701171875q-0.732421875,0-1.8310546875-0.146484375t-1.46484375-0.98876953125q-0.84228515625-1.50146484375-1.28173828125-3.790283203125t-0.6591796875-4.72412109375t-0.25634765625-4.833984375t-0.03662109375-4.119873046875q0-1.20849609375-0.091552734375-2.435302734375z M220.40844726562,122.55859375q0-2.01416015625,0.384521484375-4.302978515625t1.318359375-4.193115234375t2.581787109375-3.1494140625t4.21142578125-1.2451171875q1.72119140625,0,3.33251953125,0.567626953125t3.03955078125,1.556396484375q0.439453125-0.732421875,1.3916015625-0.897216796875t1.6845703125-0.164794921875q0.29296875,0,0.823974609375,0.03662109375t1.043701171875,0.2197265625t0.897216796875,0.439453125t0.457763671875,0.732421875q0.29296875,2.5634765625,0.40283203125,5.108642578125t0.32958984375,5.072021484375q0.3662109375,4.72412109375,1.13525390625,9.33837890625t0.76904296875,9.33837890625q0,2.23388671875-0.201416015625,4.833984375t-1.06201171875,4.815673828125t-2.508544921875,3.680419921875t-4.57763671875,1.46484375q-2.63671875,0-4.046630859375-0.933837890625t-2.545166015625-3.131103515625q0.0732421875-0.732421875,0.933837890625-0.970458984375t1.483154296875-0.238037109375q0.5859375,0,1.190185546875,0.10986328125t0.970458984375,0.3662109375l0.91552734375,0.5859375q1.35498046875-2.783203125,1.64794921875-6.0791015625t0.29296875-6.3720703125q0-2.5634765625-0.25634765625-5.072021484375t-0.5126953125-5.035400390625q-2.5634765625,4.65087890625-7.80029296875,4.65087890625q-2.4169921875,0-3.936767578125-1.025390625t-2.34375-2.60009765625t-1.13525390625-3.55224609375t-0.311279296875-3.955078125z M224.91284179688,122.88818359375q0,0.91552734375,0.0732421875,2.362060546875t0.384521484375,2.838134765625t0.897216796875,2.398681640625t1.64794921875,1.007080078125q2.01416015625,0,3.18603515625-1.57470703125t1.849365234375-3.753662109375t1.080322265625-4.50439453125t1.025390625-3.826904296875q-0.0732421875-0.5126953125-0.0732421875-1.007080078125l0-1.007080078125q-0.84228515625-1.57470703125-2.45361328125-2.728271484375t-3.33251953125-1.556396484375q-0.2197265625-0.03662109375-0.40283203125-0.03662109375q-1.025390625,0-1.6845703125,1.20849609375q-0.84228515625,1.46484375-1.318359375,3.497314453125t-0.677490234375,4.010009765625t-0.201416015625,2.67333984375z M251.70739746094,122.96142578125q0-3.369140625,0.787353515625-6.610107421875t1.336669921875-6.463623046875q0.146484375-0.84228515625,1.153564453125-1.043701171875t1.702880859375-0.201416015625q1.20849609375,0,1.94091796875,0.3662109375q0.29296875,0.146484375,0.54931640625,0.32958984375t0.25634765625,0.47607421875q0,3.1494140625-0.750732421875,6.15234375t-0.750732421875,6.3720703125q0,1.13525390625,0.164794921875,2.142333984375t0.311279296875,1.995849609375l0.2197265625,1.06201171875q0,0.29296875,0.03662109375,0.5126953125t0.10986328125,0.5126953125q0,0.6591796875-0.933837890625,0.897216796875t-1.629638671875,0.238037109375q-1.06201171875,0-1.959228515625-0.421142578125t-1.409912109375-1.446533203125l-0.5126953125-1.06201171875q-0.439453125-0.84228515625-0.439453125-1.885986328125t-0.18310546875-1.922607421875z M254.05114746094,100.91552734375l0-0.69580078125q0-1.72119140625,0.860595703125-3.076171875t2.581787109375-1.35498046875q0.2197265625,0,0.421142578125,0.03662109375t0.421142578125,0.03662109375q0.439453125,0.0732421875,1.153564453125,0.347900390625t0.714111328125,0.860595703125l0,0.0732421875q-0.146484375,0.29296875-0.18310546875,0.604248046875t-0.18310546875,0.531005859375l0.0732421875-0.0732421875q-0.439453125,1.13525390625-0.714111328125,1.8310546875t-0.604248046875,1.116943359375t-0.823974609375,0.604248046875t-1.409912109375,0.18310546875q-0.146484375,0-0.5126953125-0.03662109375t-0.787353515625-0.146484375t-0.714111328125-0.29296875t-0.29296875-0.54931640625z M266.197265625,100.5859375q0-0.5126953125,1.0986328125-0.87890625t2.490234375-0.604248046875t2.691650390625-0.347900390625t1.776123046875-0.18310546875q0-0.98876953125,0.0732421875-1.995849609375t0.40283203125-1.79443359375t1.043701171875-1.263427734375t1.995849609375-0.47607421875q1.06201171875,0,1.611328125,0.25634765625t1.171875,1.06201171875q0.146484375,0.439453125,0.146484375,0.84228515625l0,1.226806640625t-0.0732421875,1.263427734375q1.35498046875-0.146484375,2.691650390625-0.347900390625t2.691650390625-0.201416015625q0.98876953125,0,1.35498046875,0.03662109375t0.732421875,0.87890625q0.29296875,0.84228515625-0.714111328125,1.28173828125t-2.4169921875,0.6591796875t-2.801513671875,0.32958984375t-1.6845703125,0.10986328125q-0.439453125,6.298828125-0.897216796875,12.48779296875t-0.457763671875,12.56103515625q0,2.8564453125,0.18310546875,5.89599609375t1.025390625,5.74951171875q0.2197265625,0.84228515625,0.732421875,1.57470703125t0.5126953125,1.57470703125q0,0.5126953125-0.40283203125,0.8056640625t-0.970458984375,0.494384765625t-1.13525390625,0.238037109375t-0.933837890625,0.03662109375q-2.30712890625,0-3.515625-1.72119140625t-1.739501953125-4.119873046875t-0.567626953125-4.925537109375t-0.03662109375-4.1015625q0-3.22265625,0.128173828125-6.591796875t0.311279296875-6.6650390625t0.5126953125-6.4453125t0.76904296875-5.859375q-1.28173828125,0.146484375-2.508544921875,0.32958984375t-2.508544921875,0.18310546875q-0.29296875,0-0.787353515625-0.03662109375t-0.933837890625-0.18310546875t-0.750732421875-0.40283203125t-0.311279296875-0.732421875z M294.20031738281,114.39208984375q0-1.50146484375,0.87890625-2.581787109375t2.142333984375-1.7578125t2.764892578125-1.007080078125t2.783203125-0.32958984375q0.98876953125,0,2.63671875,0.29296875t3.22265625,0.87890625t2.728271484375,1.5380859375t1.153564453125,2.23388671875q0,0.5859375-0.439453125,1.043701171875t-0.91552734375,0.457763671875q-0.98876953125,0-1.79443359375-0.640869140625t-1.666259765625-1.35498046875t-1.885986328125-1.35498046875t-2.30712890625-0.640869140625t-2.325439453125,0.823974609375t-1.043701171875,2.178955078125q0,2.23388671875,1.57470703125,4.376220703125t3.460693359375,4.50439453125t3.460693359375,4.962158203125t1.57470703125,5.74951171875q0,1.35498046875-0.567626953125,2.288818359375t-1.50146484375,1.519775390625t-2.105712890625,0.897216796875t-2.2705078125,0.311279296875q-1.20849609375,0-2.81982421875-0.567626953125t-3.03955078125-1.50146484375t-2.398681640625-2.178955078125t-0.970458984375-2.60009765625q0-0.6591796875,0.933837890625-0.84228515625t1.373291015625-0.18310546875q0.2197265625,0,0.677490234375,0.146484375t0.897216796875,0.32958984375t0.787353515625,0.40283203125t0.274658203125,0.47607421875q0.3662109375,0.439453125,1.116943359375,1.300048828125t1.50146484375,1.3916015625t1.318359375,0.384521484375t0.567626953125-1.64794921875q0-2.8564453125-1.5380859375-5.255126953125t-3.350830078125-4.6875t-3.350830078125-4.541015625t-1.5380859375-4.815673828125z M320.00610351562,122.96142578125q0-3.369140625,0.787353515625-6.610107421875t1.336669921875-6.463623046875q0.146484375-0.84228515625,1.153564453125-1.043701171875t1.702880859375-0.201416015625q1.20849609375,0,1.94091796875,0.3662109375q0.29296875,0.146484375,0.54931640625,0.32958984375t0.25634765625,0.47607421875q0,3.1494140625-0.750732421875,6.15234375t-0.750732421875,6.3720703125q0,1.13525390625,0.164794921875,2.142333984375t0.311279296875,1.995849609375l0.2197265625,1.06201171875q0,0.29296875,0.03662109375,0.5126953125t0.10986328125,0.5126953125q0,0.6591796875-0.933837890625,0.897216796875t-1.629638671875,0.238037109375q-1.06201171875,0-1.959228515625-0.421142578125t-1.409912109375-1.446533203125l-0.5126953125-1.06201171875q-0.439453125-0.84228515625-0.439453125-1.885986328125t-0.18310546875-1.922607421875z M322.34985351562,100.91552734375l0-0.69580078125q0-1.72119140625,0.860595703125-3.076171875t2.581787109375-1.35498046875q0.2197265625,0,0.421142578125,0.03662109375t0.421142578125,0.03662109375q0.439453125,0.0732421875,1.153564453125,0.347900390625t0.714111328125,0.860595703125l0,0.0732421875q-0.146484375,0.29296875-0.18310546875,0.604248046875t-0.18310546875,0.531005859375l0.0732421875-0.0732421875q-0.439453125,1.13525390625-0.714111328125,1.8310546875t-0.604248046875,1.116943359375t-0.823974609375,0.604248046875t-1.409912109375,0.18310546875q-0.146484375,0-0.5126953125-0.03662109375t-0.787353515625-0.146484375t-0.714111328125-0.29296875t-0.29296875-0.54931640625z M334.49597167969,100.5859375q0-0.5126953125,1.0986328125-0.87890625t2.490234375-0.604248046875t2.691650390625-0.347900390625t1.776123046875-0.18310546875q0-0.98876953125,0.0732421875-1.995849609375t0.40283203125-1.79443359375t1.043701171875-1.263427734375t1.995849609375-0.47607421875q1.06201171875,0,1.611328125,0.25634765625t1.171875,1.06201171875q0.146484375,0.439453125,0.146484375,0.84228515625l0,1.226806640625t-0.0732421875,1.263427734375q1.35498046875-0.146484375,2.691650390625-0.347900390625t2.691650390625-0.201416015625q0.98876953125,0,1.35498046875,0.03662109375t0.732421875,0.87890625q0.29296875,0.84228515625-0.714111328125,1.28173828125t-2.4169921875,0.6591796875t-2.801513671875,0.32958984375t-1.6845703125,0.10986328125q-0.439453125,6.298828125-0.897216796875,12.48779296875t-0.457763671875,12.56103515625q0,2.8564453125,0.18310546875,5.89599609375t1.025390625,5.74951171875q0.2197265625,0.84228515625,0.732421875,1.57470703125t0.5126953125,1.57470703125q0,0.5126953125-0.40283203125,0.8056640625t-0.970458984375,0.494384765625t-1.13525390625,0.238037109375t-0.933837890625,0.03662109375q-2.30712890625,0-3.515625-1.72119140625t-1.739501953125-4.119873046875t-0.567626953125-4.925537109375t-0.03662109375-4.1015625q0-3.22265625,0.128173828125-6.591796875t0.311279296875-6.6650390625t0.5126953125-6.4453125t0.76904296875-5.859375q-1.28173828125,0.146484375-2.508544921875,0.32958984375t-2.508544921875,0.18310546875q-0.29296875,0-0.787353515625-0.03662109375t-0.933837890625-0.18310546875t-0.750732421875-0.40283203125t-0.311279296875-0.732421875z M362.4990234375,125.341796875q0-2.5634765625,0.567626953125-6.04248046875t1.922607421875-6.591796875t3.570556640625-5.291748046875t5.584716796875-2.178955078125q3.1494140625,0,4.72412109375,1.812744140625t1.57470703125,4.888916015625q0,2.01416015625-0.750732421875,4.412841796875t-2.142333984375,4.541015625t-3.2958984375,3.570556640625t-4.248046875,1.42822265625l-0.9521484375-0.0732421875q0,0.98876953125,0.29296875,2.655029296875t0.860595703125,3.314208984375t1.46484375,2.89306640625t2.178955078125,1.2451171875q1.86767578125,0,3.5888671875-1.50146484375t3.25927734375-3.33251953125t2.8564453125-3.33251953125t2.4169921875-1.50146484375q0.5859375,0,1.20849609375,0.18310546875t0.69580078125,1.025390625q0,0.5126953125-0.274658203125,0.84228515625t-0.494384765625,0.732421875q-1.13525390625,1.94091796875-2.471923828125,3.69873046875t-3.021240234375,3.18603515625t-3.680419921875,2.252197265625t-4.412841796875,0.823974609375q-3.1494140625,0-5.23681640625-1.116943359375t-3.369140625-3.0029296875t-1.849365234375-4.35791015625t-0.567626953125-5.181884765625z M369.05419921875,122.55859375l1.025390625,0.91552734375q0.732421875,0.6591796875,1.46484375,0.29296875t1.318359375-1.336669921875t1.080322265625-2.398681640625t0.87890625-2.9296875t0.567626953125-2.9296875t0.18310546875-2.38037109375l0-1.2451171875t-0.10986328125-1.318359375t-0.384521484375-1.043701171875t-0.860595703125-0.531005859375q-0.18310546875-0.03662109375-0.32958984375-0.03662109375q-1.2451171875,0-2.1240234375,1.57470703125q-0.9521484375,1.7578125-1.5380859375,4.266357421875t-0.84228515625,5.145263671875t-0.32958984375,3.955078125z"/><path fill="#" d=""/></svg>
